<mxfile host="app.diagrams.net" agent="Mozilla/5.0 (Windows NT 10.0; Win64; x64) AppleWebKit/537.36 (KHTML, like Gecko) Chrome/131.0.0.0 Safari/537.36" version="24.8.9">
  <diagram id="C5RBs43oDa-KdzZeNtuy" name="Page-1">
    <mxGraphModel dx="1985" dy="1135" grid="1" gridSize="10" guides="1" tooltips="1" connect="1" arrows="1" fold="1" page="1" pageScale="1" pageWidth="1200" pageHeight="1600" math="0" shadow="0">
      <root>
        <mxCell id="WIyWlLk6GJQsqaUBKTNV-0" />
        <mxCell id="WIyWlLk6GJQsqaUBKTNV-1" parent="WIyWlLk6GJQsqaUBKTNV-0" />
        <mxCell id="z3AlMs3EpvVUnCScVbmt-24" style="edgeStyle=orthogonalEdgeStyle;rounded=0;orthogonalLoop=1;jettySize=auto;html=1;entryX=0.5;entryY=0;entryDx=0;entryDy=0;" edge="1" parent="WIyWlLk6GJQsqaUBKTNV-1" source="z3AlMs3EpvVUnCScVbmt-0" target="z3AlMs3EpvVUnCScVbmt-4">
          <mxGeometry relative="1" as="geometry" />
        </mxCell>
        <mxCell id="z3AlMs3EpvVUnCScVbmt-25" style="edgeStyle=orthogonalEdgeStyle;rounded=0;orthogonalLoop=1;jettySize=auto;html=1;entryX=0.5;entryY=0;entryDx=0;entryDy=0;" edge="1" parent="WIyWlLk6GJQsqaUBKTNV-1" source="z3AlMs3EpvVUnCScVbmt-0" target="z3AlMs3EpvVUnCScVbmt-5">
          <mxGeometry relative="1" as="geometry" />
        </mxCell>
        <mxCell id="z3AlMs3EpvVUnCScVbmt-0" value="Nimmt Kontakt zu MUCI auf" style="rounded=0;whiteSpace=wrap;html=1;" vertex="1" parent="WIyWlLk6GJQsqaUBKTNV-1">
          <mxGeometry x="160" y="150" width="120" height="60" as="geometry" />
        </mxCell>
        <mxCell id="z3AlMs3EpvVUnCScVbmt-27" style="edgeStyle=orthogonalEdgeStyle;rounded=0;orthogonalLoop=1;jettySize=auto;html=1;entryX=0.5;entryY=0;entryDx=0;entryDy=0;" edge="1" parent="WIyWlLk6GJQsqaUBKTNV-1" source="z3AlMs3EpvVUnCScVbmt-4" target="z3AlMs3EpvVUnCScVbmt-6">
          <mxGeometry relative="1" as="geometry" />
        </mxCell>
        <mxCell id="z3AlMs3EpvVUnCScVbmt-4" value="Ruft bei MUCI an" style="rounded=0;whiteSpace=wrap;html=1;" vertex="1" parent="WIyWlLk6GJQsqaUBKTNV-1">
          <mxGeometry x="80" y="280" width="120" height="60" as="geometry" />
        </mxCell>
        <mxCell id="z3AlMs3EpvVUnCScVbmt-5" value="Registriert sich mit dem MUCI BOT" style="rounded=0;whiteSpace=wrap;html=1;" vertex="1" parent="WIyWlLk6GJQsqaUBKTNV-1">
          <mxGeometry x="240" y="280" width="120" height="60" as="geometry" />
        </mxCell>
        <mxCell id="z3AlMs3EpvVUnCScVbmt-29" style="edgeStyle=orthogonalEdgeStyle;rounded=0;orthogonalLoop=1;jettySize=auto;html=1;entryX=0.5;entryY=0;entryDx=0;entryDy=0;" edge="1" parent="WIyWlLk6GJQsqaUBKTNV-1" source="z3AlMs3EpvVUnCScVbmt-6" target="z3AlMs3EpvVUnCScVbmt-7">
          <mxGeometry relative="1" as="geometry" />
        </mxCell>
        <mxCell id="z3AlMs3EpvVUnCScVbmt-6" value="wird durch die Registrierung geführt" style="rounded=0;whiteSpace=wrap;html=1;" vertex="1" parent="WIyWlLk6GJQsqaUBKTNV-1">
          <mxGeometry x="160" y="400" width="120" height="60" as="geometry" />
        </mxCell>
        <mxCell id="z3AlMs3EpvVUnCScVbmt-30" style="edgeStyle=orthogonalEdgeStyle;rounded=0;orthogonalLoop=1;jettySize=auto;html=1;entryX=0.5;entryY=0;entryDx=0;entryDy=0;" edge="1" parent="WIyWlLk6GJQsqaUBKTNV-1" source="z3AlMs3EpvVUnCScVbmt-7" target="z3AlMs3EpvVUnCScVbmt-8">
          <mxGeometry relative="1" as="geometry" />
        </mxCell>
        <mxCell id="z3AlMs3EpvVUnCScVbmt-7" value="Alter, Interessen, Telefonnummer, bevorzugte Kontaktart, ggf Ort und ggf Terminkalender werden dabei hinterlegt" style="rounded=0;whiteSpace=wrap;html=1;" vertex="1" parent="WIyWlLk6GJQsqaUBKTNV-1">
          <mxGeometry x="140" y="500" width="160" height="100" as="geometry" />
        </mxCell>
        <mxCell id="z3AlMs3EpvVUnCScVbmt-31" style="edgeStyle=orthogonalEdgeStyle;rounded=0;orthogonalLoop=1;jettySize=auto;html=1;entryX=0.5;entryY=0;entryDx=0;entryDy=0;" edge="1" parent="WIyWlLk6GJQsqaUBKTNV-1" source="z3AlMs3EpvVUnCScVbmt-8" target="z3AlMs3EpvVUnCScVbmt-10">
          <mxGeometry relative="1" as="geometry" />
        </mxCell>
        <mxCell id="z3AlMs3EpvVUnCScVbmt-8" value="Event wird hinterlegt oder ist bereits hinterlegt" style="rounded=0;whiteSpace=wrap;html=1;" vertex="1" parent="WIyWlLk6GJQsqaUBKTNV-1">
          <mxGeometry x="140" y="650" width="160" height="100" as="geometry" />
        </mxCell>
        <mxCell id="z3AlMs3EpvVUnCScVbmt-32" style="edgeStyle=orthogonalEdgeStyle;rounded=0;orthogonalLoop=1;jettySize=auto;html=1;entryX=0.5;entryY=0;entryDx=0;entryDy=0;" edge="1" parent="WIyWlLk6GJQsqaUBKTNV-1" source="z3AlMs3EpvVUnCScVbmt-10" target="z3AlMs3EpvVUnCScVbmt-12">
          <mxGeometry relative="1" as="geometry" />
        </mxCell>
        <mxCell id="z3AlMs3EpvVUnCScVbmt-10" value="Plätz frei?" style="rhombus;whiteSpace=wrap;html=1;" vertex="1" parent="WIyWlLk6GJQsqaUBKTNV-1">
          <mxGeometry x="180" y="790" width="80" height="80" as="geometry" />
        </mxCell>
        <mxCell id="z3AlMs3EpvVUnCScVbmt-35" style="edgeStyle=orthogonalEdgeStyle;rounded=0;orthogonalLoop=1;jettySize=auto;html=1;entryX=0.5;entryY=0;entryDx=0;entryDy=0;" edge="1" parent="WIyWlLk6GJQsqaUBKTNV-1" source="z3AlMs3EpvVUnCScVbmt-11" target="z3AlMs3EpvVUnCScVbmt-13">
          <mxGeometry relative="1" as="geometry" />
        </mxCell>
        <mxCell id="z3AlMs3EpvVUnCScVbmt-11" value="Nutzer wird kontaktiert mittels Anruf oder Telegramnachricht" style="rounded=0;whiteSpace=wrap;html=1;" vertex="1" parent="WIyWlLk6GJQsqaUBKTNV-1">
          <mxGeometry x="160" y="990" width="120" height="60" as="geometry" />
        </mxCell>
        <mxCell id="z3AlMs3EpvVUnCScVbmt-33" style="edgeStyle=orthogonalEdgeStyle;rounded=0;orthogonalLoop=1;jettySize=auto;html=1;entryX=0.5;entryY=0;entryDx=0;entryDy=0;" edge="1" parent="WIyWlLk6GJQsqaUBKTNV-1" source="z3AlMs3EpvVUnCScVbmt-12" target="z3AlMs3EpvVUnCScVbmt-11">
          <mxGeometry relative="1" as="geometry" />
        </mxCell>
        <mxCell id="z3AlMs3EpvVUnCScVbmt-12" value="Interessen, Ort, Alter, etc. passen?" style="rhombus;whiteSpace=wrap;html=1;" vertex="1" parent="WIyWlLk6GJQsqaUBKTNV-1">
          <mxGeometry x="180" y="890" width="80" height="80" as="geometry" />
        </mxCell>
        <mxCell id="z3AlMs3EpvVUnCScVbmt-37" value="" style="edgeStyle=orthogonalEdgeStyle;rounded=0;orthogonalLoop=1;jettySize=auto;html=1;" edge="1" parent="WIyWlLk6GJQsqaUBKTNV-1" source="z3AlMs3EpvVUnCScVbmt-13" target="z3AlMs3EpvVUnCScVbmt-18">
          <mxGeometry relative="1" as="geometry" />
        </mxCell>
        <mxCell id="z3AlMs3EpvVUnCScVbmt-13" value="Nutzer antwortet mit ja oder nein Reaktion und ist angemeldet" style="rounded=0;whiteSpace=wrap;html=1;" vertex="1" parent="WIyWlLk6GJQsqaUBKTNV-1">
          <mxGeometry x="160" y="1080" width="120" height="60" as="geometry" />
        </mxCell>
        <mxCell id="z3AlMs3EpvVUnCScVbmt-38" value="" style="edgeStyle=orthogonalEdgeStyle;rounded=0;orthogonalLoop=1;jettySize=auto;html=1;" edge="1" parent="WIyWlLk6GJQsqaUBKTNV-1" source="z3AlMs3EpvVUnCScVbmt-15" target="z3AlMs3EpvVUnCScVbmt-16">
          <mxGeometry relative="1" as="geometry" />
        </mxCell>
        <mxCell id="z3AlMs3EpvVUnCScVbmt-15" value="Organisation registriert sich" style="rounded=0;whiteSpace=wrap;html=1;" vertex="1" parent="WIyWlLk6GJQsqaUBKTNV-1">
          <mxGeometry x="500" y="80" width="120" height="60" as="geometry" />
        </mxCell>
        <mxCell id="z3AlMs3EpvVUnCScVbmt-39" value="" style="edgeStyle=orthogonalEdgeStyle;rounded=0;orthogonalLoop=1;jettySize=auto;html=1;" edge="1" parent="WIyWlLk6GJQsqaUBKTNV-1" source="z3AlMs3EpvVUnCScVbmt-16" target="z3AlMs3EpvVUnCScVbmt-17">
          <mxGeometry relative="1" as="geometry" />
        </mxCell>
        <mxCell id="z3AlMs3EpvVUnCScVbmt-16" value="Stadt München verifiziert die Organisation" style="rounded=0;whiteSpace=wrap;html=1;" vertex="1" parent="WIyWlLk6GJQsqaUBKTNV-1">
          <mxGeometry x="500" y="170" width="120" height="60" as="geometry" />
        </mxCell>
        <mxCell id="z3AlMs3EpvVUnCScVbmt-17" value="Organisation erhält Zugang zu MUCI" style="rounded=0;whiteSpace=wrap;html=1;" vertex="1" parent="WIyWlLk6GJQsqaUBKTNV-1">
          <mxGeometry x="500" y="270" width="120" height="60" as="geometry" />
        </mxCell>
        <mxCell id="z3AlMs3EpvVUnCScVbmt-18" value="Erhält im Anschluss Rabatte und Details (Mail, in Anwendung, Telegram,...)" style="rounded=0;whiteSpace=wrap;html=1;" vertex="1" parent="WIyWlLk6GJQsqaUBKTNV-1">
          <mxGeometry x="160" y="1160" width="120" height="60" as="geometry" />
        </mxCell>
        <mxCell id="z3AlMs3EpvVUnCScVbmt-19" value="Nutzer kann sich selbst anmelden per Website" style="rounded=0;whiteSpace=wrap;html=1;" vertex="1" parent="WIyWlLk6GJQsqaUBKTNV-1">
          <mxGeometry x="10" y="1040" width="120" height="60" as="geometry" />
        </mxCell>
        <mxCell id="z3AlMs3EpvVUnCScVbmt-23" value="" style="edgeStyle=orthogonalEdgeStyle;rounded=0;orthogonalLoop=1;jettySize=auto;html=1;" edge="1" parent="WIyWlLk6GJQsqaUBKTNV-1" source="z3AlMs3EpvVUnCScVbmt-22" target="z3AlMs3EpvVUnCScVbmt-0">
          <mxGeometry relative="1" as="geometry" />
        </mxCell>
        <mxCell id="z3AlMs3EpvVUnCScVbmt-22" value="Person fühlt sich einsam und wird auf MUCI aufmerksam" style="rounded=0;whiteSpace=wrap;html=1;" vertex="1" parent="WIyWlLk6GJQsqaUBKTNV-1">
          <mxGeometry x="160" y="70" width="120" height="60" as="geometry" />
        </mxCell>
        <mxCell id="z3AlMs3EpvVUnCScVbmt-28" style="edgeStyle=orthogonalEdgeStyle;rounded=0;orthogonalLoop=1;jettySize=auto;html=1;entryX=0.583;entryY=0;entryDx=0;entryDy=0;entryPerimeter=0;" edge="1" parent="WIyWlLk6GJQsqaUBKTNV-1" source="z3AlMs3EpvVUnCScVbmt-5" target="z3AlMs3EpvVUnCScVbmt-6">
          <mxGeometry relative="1" as="geometry" />
        </mxCell>
        <mxCell id="z3AlMs3EpvVUnCScVbmt-36" style="edgeStyle=orthogonalEdgeStyle;rounded=0;orthogonalLoop=1;jettySize=auto;html=1;entryX=0.428;entryY=-0.022;entryDx=0;entryDy=0;entryPerimeter=0;" edge="1" parent="WIyWlLk6GJQsqaUBKTNV-1" source="z3AlMs3EpvVUnCScVbmt-12" target="z3AlMs3EpvVUnCScVbmt-19">
          <mxGeometry relative="1" as="geometry" />
        </mxCell>
        <mxCell id="z3AlMs3EpvVUnCScVbmt-40" style="edgeStyle=orthogonalEdgeStyle;rounded=0;orthogonalLoop=1;jettySize=auto;html=1;entryX=1.005;entryY=0.57;entryDx=0;entryDy=0;entryPerimeter=0;" edge="1" parent="WIyWlLk6GJQsqaUBKTNV-1" source="z3AlMs3EpvVUnCScVbmt-17" target="z3AlMs3EpvVUnCScVbmt-8">
          <mxGeometry relative="1" as="geometry" />
        </mxCell>
      </root>
    </mxGraphModel>
  </diagram>
</mxfile>
